<svg xmlns="http://www.w3.org/2000/svg" width="36" height="36" viewBox="0 0 36 36" fill="none">
  <path d="M28.6877 3.9375C27.0886 3.93622 25.5512 4.55404 24.3977 5.66142C23.2441 6.7688 22.5641 8.27975 22.5002 9.8775C21.3067 8.88861 19.7879 8.3794 18.2396 8.44907C16.6913 8.51874 15.2243 9.1623 14.1245 10.2544L2.94204 21.4481C1.79921 22.6196 1.16405 24.1943 1.17419 25.8309C1.18434 27.4675 1.83897 29.0342 2.99623 30.1914C4.1535 31.3487 5.72017 32.0033 7.35676 32.0135C8.99335 32.0236 10.568 31.3885 11.7395 30.2456L12.7858 29.1994C13.2834 29.9802 13.95 30.6393 14.7363 31.1282C15.5226 31.6171 16.4086 31.9234 17.329 32.0243C18.2493 32.1252 19.1806 32.0183 20.0542 31.7115C20.9278 31.4046 21.7213 30.9056 22.3764 30.2512C22.7516 29.8724 23.0767 29.447 23.3439 28.9856C24.0289 30.1592 25.0812 31.0746 26.3382 31.5905C27.5953 32.1065 28.9872 32.1943 30.2992 31.8404C31.6111 31.4865 32.7701 30.7106 33.5971 29.6324C34.4241 28.5542 34.8733 27.2338 34.8752 25.875V10.125C34.8752 8.48397 34.2233 6.91016 33.0629 5.74978C31.9025 4.5894 30.3287 3.9375 28.6877 3.9375ZM14.0627 29.0362C13.3141 28.0619 12.9455 26.8485 13.0255 25.6224C13.1055 24.3963 13.6287 23.2412 14.4975 22.3723C15.3663 21.5035 16.5215 20.9803 17.7476 20.9003C18.9737 20.8203 20.187 21.1889 21.1614 21.9375L14.0627 29.0362ZM22.3933 21.4988C22.0744 21.1817 21.7217 20.9007 21.3414 20.6606L22.5002 19.4794V21.6394C22.4552 21.5944 22.4214 21.5438 22.3764 21.4988H22.3933ZM14.9345 11.0531C15.8914 10.1023 17.1856 9.56869 18.5345 9.56869C19.8835 9.56869 21.1776 10.1023 22.1345 11.0531C22.2656 11.1795 22.3878 11.3148 22.5002 11.4581V17.8481C22.3863 17.9901 22.2642 18.1254 22.1345 18.2531L20.2502 20.1206C19.2813 19.7402 18.2321 19.6103 17.1997 19.7431C16.1673 19.8758 15.185 20.2668 14.3439 20.88L9.73141 16.2506L14.9345 11.0531ZM10.9408 29.4469C10.468 29.9196 9.90678 30.2946 9.28909 30.5505C8.6714 30.8064 8.00937 30.938 7.34079 30.938C6.6722 30.938 6.01017 30.8064 5.39248 30.5505C4.77479 30.2946 4.21354 29.9196 3.74079 29.4469C3.26803 28.9741 2.89301 28.4129 2.63716 27.7952C2.3813 27.1775 2.24962 26.5155 2.24962 25.8469C2.24962 25.1783 2.3813 24.5163 2.63716 23.8986C2.89301 23.2809 3.26803 22.7196 3.74079 22.2469L8.93829 17.0438L13.5002 21.6225C12.6965 22.4762 12.1519 23.5406 11.9298 24.6918C11.7077 25.843 11.8173 27.0337 12.2458 28.125L10.9408 29.4469ZM21.5777 29.4469C20.6967 30.3304 19.5205 30.8576 18.2748 30.9271C17.029 30.9967 15.8015 30.6038 14.8277 29.8237L21.9377 22.7138C22.7167 23.6848 23.1106 24.9087 23.0442 26.1519C22.9778 27.395 22.4557 28.57 21.5777 29.4525V29.4469ZM28.6877 30.9375C27.6502 30.9372 26.6379 30.6181 25.7878 30.0235C24.9377 29.4289 24.2907 28.5875 23.9345 27.6131C24.3466 26.1895 24.2369 24.6655 23.6252 23.3156V18.5625H33.7502V25.875C33.7502 27.2177 33.2168 28.5053 32.2674 29.4547C31.318 30.4041 30.0303 30.9375 28.6877 30.9375ZM33.7502 17.4375H23.6252V10.125C23.6252 8.78234 24.1585 7.49468 25.1079 6.54527C26.0573 5.59587 27.345 5.0625 28.6877 5.0625C30.0303 5.0625 31.318 5.59587 32.2674 6.54527C33.2168 7.49468 33.7502 8.78234 33.7502 10.125V17.4375Z" fill="white"/>
</svg>
