<svg xmlns="http://www.w3.org/2000/svg" width="36" height="36" viewBox="0 0 36 36" fill="none">
  <g clip-path="url(#clip0_1098_905)">
    <path d="M18 4.5C17.586 4.5 17.25 4.164 17.25 3.75V0.75C17.25 0.336 17.586 0 18 0C18.414 0 18.75 0.336 18.75 0.75V3.75C18.75 4.164 18.414 4.5 18 4.5Z" fill="white"/>
    <path d="M28.077 8.67261C27.885 8.67261 27.693 8.59911 27.546 8.45361C27.2535 8.16111 27.2535 7.68561 27.546 7.39311L29.667 5.27211C29.9595 4.97961 30.435 4.97961 30.7275 5.27211C31.02 5.56461 31.02 6.04011 30.7275 6.33261L28.6065 8.45361C28.461 8.59911 28.269 8.67261 28.077 8.67261Z" fill="white"/>
    <path d="M35.25 18.75H32.25C31.836 18.75 31.5 18.414 31.5 18C31.5 17.586 31.836 17.25 32.25 17.25H35.25C35.664 17.25 36 17.586 36 18C36 18.414 35.664 18.75 35.25 18.75Z" fill="white"/>
    <path d="M30.198 30.948C30.006 30.948 29.814 30.8745 29.667 30.729L27.546 28.608C27.2535 28.3155 27.2535 27.84 27.546 27.5475C27.8385 27.255 28.314 27.255 28.6065 27.5475L30.7275 29.6685C31.02 29.961 31.02 30.4365 30.7275 30.729C30.582 30.8745 30.39 30.948 30.198 30.948Z" fill="white"/>
    <path d="M18 36C17.586 36 17.25 35.664 17.25 35.25V32.25C17.25 31.836 17.586 31.5 18 31.5C18.414 31.5 18.75 31.836 18.75 32.25V35.25C18.75 35.664 18.414 36 18 36Z" fill="white"/>
    <path d="M5.80189 30.948C5.60989 30.948 5.41789 30.8745 5.27089 30.729C4.97839 30.4365 4.97839 29.961 5.27089 29.6685L7.39189 27.5475C7.68439 27.255 8.15989 27.255 8.45239 27.5475C8.74489 27.84 8.74489 28.3155 8.45239 28.608L6.33139 30.729C6.18589 30.8745 5.99389 30.948 5.80189 30.948Z" fill="white"/>
    <path d="M3.75 18.75H0.75C0.336 18.75 0 18.414 0 18C0 17.586 0.336 17.25 0.75 17.25H3.75C4.164 17.25 4.5 17.586 4.5 18C4.5 18.414 4.164 18.75 3.75 18.75Z" fill="white"/>
    <path d="M7.9231 8.67261C7.7311 8.67261 7.5391 8.59911 7.3921 8.45361L5.2726 6.33261C4.9801 6.04011 4.9801 5.56461 5.2726 5.27211C5.5651 4.97961 6.0406 4.97961 6.3331 5.27211L8.4541 7.39311C8.7466 7.68561 8.7466 8.16111 8.4541 8.45361C8.3071 8.59911 8.1151 8.67261 7.9231 8.67261Z" fill="white"/>
    <path d="M15.8594 29.9998C15.7709 29.9998 15.6839 29.9848 15.5969 29.9533C15.2684 29.8303 15.0689 29.4973 15.1154 29.1523L16.3949 19.4998H11.2499C10.9664 19.4998 10.7069 19.3393 10.5794 19.0858C10.4519 18.8323 10.4789 18.5278 10.6499 18.2998L19.6499 6.2998C19.8584 6.0208 20.2289 5.9218 20.5454 6.0598C20.8634 6.1963 21.0479 6.5308 20.9909 6.8728L19.6349 14.9998H24.7499C25.0259 14.9998 25.2794 15.1513 25.4099 15.3943C25.5404 15.6373 25.5269 15.9313 25.3769 16.1638L16.4864 29.6638C16.3439 29.8783 16.1054 29.9998 15.8594 29.9998ZM12.7499 17.9998H17.2499C17.4674 17.9998 17.6714 18.0943 17.8139 18.2563C17.9564 18.4168 18.0224 18.6343 17.9939 18.8488L17.0324 26.1058L23.3579 16.4998H18.7499C18.5294 16.4998 18.3209 16.4038 18.1769 16.2343C18.0344 16.0663 17.9729 15.8428 18.0104 15.6268L19.0049 9.6598L12.7499 17.9998Z" fill="white"/>
  </g>
  <defs>
    <clipPath id="clip0_1098_905">
      <rect width="36" height="36" fill="white"/>
    </clipPath>
  </defs>
</svg>
