<svg xmlns="http://www.w3.org/2000/svg" width="36" height="36" viewBox="0 0 36 36" fill="none">
  <path d="M24.1875 10.6875C24.3367 10.6875 24.4798 10.6282 24.5852 10.5227C24.6907 10.4173 24.75 10.2742 24.75 10.125V7.875C24.75 7.72582 24.6907 7.58274 24.5852 7.47725C24.4798 7.37176 24.3367 7.3125 24.1875 7.3125C24.0383 7.3125 23.8952 7.37176 23.7898 7.47725C23.6843 7.58274 23.625 7.72582 23.625 7.875V10.125C23.625 10.2742 23.6843 10.4173 23.7898 10.5227C23.8952 10.6282 24.0383 10.6875 24.1875 10.6875Z" fill="white"/>
  <path d="M24.1875 16.3125C24.0383 16.3125 23.8952 16.3718 23.7898 16.4773C23.6843 16.5827 23.625 16.7258 23.625 16.875V19.125C23.625 19.2742 23.6843 19.4173 23.7898 19.5227C23.8952 19.6282 24.0383 19.6875 24.1875 19.6875C24.3367 19.6875 24.4798 19.6282 24.5852 19.5227C24.6907 19.4173 24.75 19.2742 24.75 19.125V16.875C24.75 16.7258 24.6907 16.5827 24.5852 16.4773C24.4798 16.3718 24.3367 16.3125 24.1875 16.3125Z" fill="white"/>
  <path d="M11.8125 28.6875C12.7025 28.6875 13.5725 28.4236 14.3126 27.9291C15.0526 27.4346 15.6294 26.7318 15.97 25.9096C16.3106 25.0873 16.3997 24.1825 16.226 23.3096C16.0524 22.4367 15.6238 21.6349 14.9945 21.0055C14.3651 20.3762 13.5633 19.9476 12.6904 19.774C11.8175 19.6003 10.9127 19.6894 10.0904 20.03C9.26816 20.3706 8.56535 20.9474 8.07089 21.6874C7.57642 22.4275 7.3125 23.2975 7.3125 24.1875C7.3125 25.381 7.78661 26.5256 8.63052 27.3695C9.47443 28.2134 10.619 28.6875 11.8125 28.6875ZM11.8125 20.8125C12.3762 20.8095 12.9317 20.9477 13.4283 21.2146C13.9248 21.4815 14.3466 21.8685 14.6552 22.3403C14.9637 22.8121 15.1492 23.3537 15.1946 23.9156C15.24 24.4775 15.1439 25.0418 14.9152 25.557C14.6864 26.0723 14.3322 26.522 13.885 26.8651C13.4377 27.2083 12.9116 27.4339 12.3547 27.5215C11.7978 27.6091 11.2279 27.5557 10.6969 27.3664C10.1659 27.177 9.69083 26.8577 9.315 26.4375H9.36562C9.74065 26.3543 10.0761 26.1456 10.3164 25.8459C10.5568 25.5462 10.6877 25.1735 10.6875 24.7894V23.5856C10.6877 23.2015 10.5568 22.8288 10.3164 22.5291C10.0761 22.2294 9.74065 22.0207 9.36562 21.9375H9.30937C9.62454 21.5851 10.0102 21.3029 10.4414 21.1091C10.8726 20.9153 11.3397 20.8142 11.8125 20.8125ZM8.4375 24.1875C8.43946 23.7598 8.5215 23.3363 8.67938 22.9388L9.12375 23.04C9.25064 23.0686 9.36371 23.1402 9.4437 23.2428C9.5237 23.3454 9.56568 23.4725 9.5625 23.6025V24.8063C9.56568 24.9363 9.5237 25.0634 9.4437 25.166C9.36371 25.2685 9.25064 25.3402 9.12375 25.3688L8.67938 25.47C8.51731 25.062 8.43519 24.6266 8.4375 24.1875Z" fill="white"/>
  <path d="M16.875 15.1875H18C18.1492 15.1875 18.2923 15.1282 18.3977 15.0227C18.5032 14.9173 18.5625 14.7742 18.5625 14.625C18.5625 14.4758 18.5032 14.3327 18.3977 14.2273C18.2923 14.1218 18.1492 14.0625 18 14.0625H16.875C16.7258 14.0625 16.5827 14.1218 16.4773 14.2273C16.3718 14.3327 16.3125 14.4758 16.3125 14.625C16.3125 14.7742 16.3718 14.9173 16.4773 15.0227C16.5827 15.1282 16.7258 15.1875 16.875 15.1875Z" fill="white"/>
  <path d="M5.625 15.1875H6.75C6.89918 15.1875 7.04226 15.1282 7.14775 15.0227C7.25324 14.9173 7.3125 14.7742 7.3125 14.625C7.3125 14.4758 7.25324 14.3327 7.14775 14.2273C7.04226 14.1218 6.89918 14.0625 6.75 14.0625H5.625C5.47582 14.0625 5.33274 14.1218 5.22725 14.2273C5.12176 14.3327 5.0625 14.4758 5.0625 14.625C5.0625 14.7742 5.12176 14.9173 5.22725 15.0227C5.33274 15.1282 5.47582 15.1875 5.625 15.1875Z" fill="white"/>
  <path d="M9 15.1875H14.625C14.7742 15.1875 14.9173 15.1282 15.0227 15.0227C15.1282 14.9173 15.1875 14.7742 15.1875 14.625C15.1875 14.4758 15.1282 14.3327 15.0227 14.2273C14.9173 14.1218 14.7742 14.0625 14.625 14.0625H9C8.85082 14.0625 8.70774 14.1218 8.60225 14.2273C8.49676 14.3327 8.4375 14.4758 8.4375 14.625C8.4375 14.7742 8.49676 14.9173 8.60225 15.0227C8.70774 15.1282 8.85082 15.1875 9 15.1875Z" fill="white"/>
  <path d="M31.5 20.8125H27V4.5C27 4.05245 26.8222 3.62322 26.5057 3.30676C26.1893 2.99029 25.7601 2.8125 25.3125 2.8125H10.6875C10.2399 2.8125 9.81072 2.99029 9.49426 3.30676C9.17779 3.62322 9 4.05245 9 4.5V11.8125H4.5C4.05245 11.8125 3.62322 11.9903 3.30676 12.3068C2.99029 12.6232 2.8125 13.0524 2.8125 13.5V31.5C2.8125 31.9476 2.99029 32.3768 3.30676 32.6932C3.62322 33.0097 4.05245 33.1875 4.5 33.1875H31.5C31.9476 33.1875 32.3768 33.0097 32.6932 32.6932C33.0097 32.3768 33.1875 31.9476 33.1875 31.5V22.5C33.1875 22.0524 33.0097 21.6232 32.6932 21.3068C32.3768 20.9903 31.9476 20.8125 31.5 20.8125ZM20.8125 20.8125V15.1875H25.875V20.8125H20.8125ZM10.125 4.5C10.125 4.35082 10.1843 4.20774 10.2898 4.10225C10.3952 3.99676 10.5383 3.9375 10.6875 3.9375H15.4012L14.8387 5.0625H10.125V4.5ZM10.125 6.1875H15.1875C15.2914 6.18719 15.3931 6.15811 15.4815 6.10351C15.5699 6.0489 15.6414 5.97089 15.6881 5.87812L16.6613 3.9375H25.3125C25.4617 3.9375 25.6048 3.99676 25.7102 4.10225C25.8157 4.20774 25.875 4.35082 25.875 4.5V14.0625H20.8125V13.5C20.8125 13.0524 20.6347 12.6232 20.3182 12.3068C20.0018 11.9903 19.5726 11.8125 19.125 11.8125H10.125V6.1875ZM4.5 12.9375H19.125C19.2742 12.9375 19.4173 12.9968 19.5227 13.1023C19.6282 13.2077 19.6875 13.3508 19.6875 13.5V16.3125H3.9375V13.5C3.9375 13.3508 3.99676 13.2077 4.10225 13.1023C4.20774 12.9968 4.35082 12.9375 4.5 12.9375ZM3.9375 31.5V17.4375H19.6875V20.8125H19.125C18.6774 20.8125 18.2482 20.9903 17.9318 21.3068C17.6153 21.6232 17.4375 22.0524 17.4375 22.5V29.8125H5.625C5.47582 29.8125 5.33274 29.8718 5.22725 29.9773C5.12176 30.0827 5.0625 30.2258 5.0625 30.375C5.0625 30.5242 5.12176 30.6673 5.22725 30.7727C5.33274 30.8782 5.47582 30.9375 5.625 30.9375H17.4375V31.5C17.439 31.6919 17.4733 31.8821 17.5387 32.0625H4.5C4.35082 32.0625 4.20774 32.0032 4.10225 31.8977C3.99676 31.7923 3.9375 31.6492 3.9375 31.5ZM32.0625 31.5C32.0625 31.6492 32.0032 31.7923 31.8977 31.8977C31.7923 32.0032 31.6492 32.0625 31.5 32.0625H19.125C18.9758 32.0625 18.8327 32.0032 18.7273 31.8977C18.6218 31.7923 18.5625 31.6492 18.5625 31.5V22.5C18.5625 22.3508 18.6218 22.2077 18.7273 22.1023C18.8327 21.9968 18.9758 21.9375 19.125 21.9375H31.5C31.6492 21.9375 31.7923 21.9968 31.8977 22.1023C32.0032 22.2077 32.0625 22.3508 32.0625 22.5V31.5Z" fill="white"/>
  <path d="M27 23.0625H20.25C20.1008 23.0625 19.9577 23.1218 19.8523 23.2273C19.7468 23.3327 19.6875 23.4758 19.6875 23.625V30.375C19.6875 30.5242 19.7468 30.6673 19.8523 30.7727C19.9577 30.8782 20.1008 30.9375 20.25 30.9375H27C27.1492 30.9375 27.2923 30.8782 27.3977 30.7727C27.5032 30.6673 27.5625 30.5242 27.5625 30.375V23.625C27.5625 23.4758 27.5032 23.3327 27.3977 23.2273C27.2923 23.1218 27.1492 23.0625 27 23.0625ZM26.4375 29.8125H20.8125V24.1875H26.4375V29.8125Z" fill="white"/>
  <path d="M30.375 26.4375H29.25C29.1008 26.4375 28.9577 26.4968 28.8523 26.6023C28.7468 26.7077 28.6875 26.8508 28.6875 27C28.6875 27.1492 28.7468 27.2923 28.8523 27.3977C28.9577 27.5032 29.1008 27.5625 29.25 27.5625H30.375C30.5242 27.5625 30.6673 27.5032 30.7727 27.3977C30.8782 27.2923 30.9375 27.1492 30.9375 27C30.9375 26.8508 30.8782 26.7077 30.7727 26.6023C30.6673 26.4968 30.5242 26.4375 30.375 26.4375Z" fill="white"/>
  <path d="M30.375 24.1875H29.25C29.1008 24.1875 28.9577 24.2468 28.8523 24.3523C28.7468 24.4577 28.6875 24.6008 28.6875 24.75C28.6875 24.8992 28.7468 25.0423 28.8523 25.1477C28.9577 25.2532 29.1008 25.3125 29.25 25.3125H30.375C30.5242 25.3125 30.6673 25.2532 30.7727 25.1477C30.8782 25.0423 30.9375 24.8992 30.9375 24.75C30.9375 24.6008 30.8782 24.4577 30.7727 24.3523C30.6673 24.2468 30.5242 24.1875 30.375 24.1875Z" fill="white"/>
  <path d="M30.375 28.6875H29.25C29.1008 28.6875 28.9577 28.7468 28.8523 28.8523C28.7468 28.9577 28.6875 29.1008 28.6875 29.25C28.6875 29.3992 28.7468 29.5423 28.8523 29.6477C28.9577 29.7532 29.1008 29.8125 29.25 29.8125H30.375C30.5242 29.8125 30.6673 29.7532 30.7727 29.6477C30.8782 29.5423 30.9375 29.3992 30.9375 29.25C30.9375 29.1008 30.8782 28.9577 30.7727 28.8523C30.6673 28.7468 30.5242 28.6875 30.375 28.6875Z" fill="white"/>
</svg>
