<svg xmlns="http://www.w3.org/2000/svg" width="32" height="32" viewBox="0 0 32 32" fill="none">
  <path d="M7.49384 14.7377C11.4879 14.7377 14.7377 11.4879 14.7377 7.49438C14.7377 3.49976 11.4879 0.25 7.49384 0.25C3.49976 0.25 0.25 3.49976 0.25 7.49438C0.25 11.4879 3.49976 14.7377 7.49384 14.7377ZM7.49384 2.5C10.2476 2.5 12.4877 4.74011 12.4877 7.49438C12.4877 10.2476 10.2476 12.4877 7.49384 12.4877C4.74011 12.4877 2.5 10.2476 2.5 7.49438C2.5 4.74011 4.74011 2.5 7.49384 2.5Z" fill="white"/>
  <path d="M7.49384 31.7494C11.4879 31.7494 14.7377 28.4996 14.7377 24.505C14.7377 20.5115 11.4879 17.2617 7.49384 17.2617C3.49976 17.2617 0.25 20.5115 0.25 24.505C0.25 28.4996 3.49976 31.7494 7.49384 31.7494ZM7.49384 19.5117C10.2476 19.5117 12.4877 21.7518 12.4877 24.505C12.4877 27.2593 10.2476 29.4994 7.49384 29.4994C4.74011 29.4994 2.5 27.2593 2.5 24.505C2.5 21.7518 4.74011 19.5117 7.49384 19.5117Z" fill="white"/>
  <path d="M24.506 17.2617C20.512 17.2617 17.2622 20.5115 17.2622 24.505C17.2622 28.4996 20.512 31.7494 24.506 31.7494C28.5001 31.7494 31.7499 28.4996 31.7499 24.505C31.7499 20.5115 28.5001 17.2617 24.506 17.2617ZM24.506 29.4994C21.7523 29.4994 19.5122 27.2593 19.5122 24.505C19.5122 21.7518 21.7523 19.5117 24.506 19.5117C27.2598 19.5117 29.4999 21.7518 29.4999 24.505C29.4999 27.2593 27.2598 29.4994 24.506 29.4994Z" fill="white"/>
  <path d="M30.6249 6.36938H25.631V1.375C25.631 0.753174 25.1273 0.25 24.506 0.25C23.8848 0.25 23.381 0.753174 23.381 1.375V6.36938H18.3872C17.7659 6.36938 17.2622 6.87256 17.2622 7.49438C17.2622 8.11621 17.7659 8.61938 18.3872 8.61938H23.381V13.6127C23.381 14.2345 23.8848 14.7377 24.506 14.7377C25.1273 14.7377 25.631 14.2345 25.631 13.6127V8.61938H30.6249C31.2462 8.61938 31.7499 8.11621 31.7499 7.49438C31.7499 6.87256 31.2462 6.36938 30.6249 6.36938Z" fill="white"/>
</svg>
