<svg width="29" height="29" viewBox="0 0 28 28" fill="none" xmlns="http://www.w3.org/2000/svg">
<path d="M14 28C21.7319 28 28 21.732 28 14C28 6.26806 21.7319 0 14 0C6.26798 0 0 6.26806 0 14C0 21.732 6.26798 28 14 28Z" fill="#394B9B"/>
<path d="M18.8493 16.6499C18.9363 16.7369 18.9363 16.8821 18.8493 16.9691L18.0947 17.7236L18.53 19.2558C18.5707 19.4009 18.5301 19.5635 18.4198 19.668L17.7987 20.2948C17.6943 20.3992 17.5202 20.3702 17.4563 20.2367L15.4366 16.0056L14.3629 14.9319C13.916 15.3788 13.6199 15.6749 13.6199 15.6749C13.115 16.1798 12.6159 16.5861 12.169 16.8995L12.8712 18.4491C12.9351 18.5942 12.906 18.7567 12.7958 18.8727L12.3373 19.3313C12.2677 19.4009 12.1574 19.3893 12.1051 19.308L10.9733 17.5727C10.6251 17.7062 10.3871 17.7294 10.3117 17.6481C10.2304 17.5669 10.2536 17.3289 10.3871 16.9865L8.65175 15.8547C8.5705 15.8025 8.55894 15.6864 8.62859 15.6226L9.08705 15.1641C9.19732 15.0538 9.36569 15.0248 9.51079 15.0887L11.0604 15.7909C11.3738 15.344 11.7801 14.8507 12.285 14.3399C12.285 14.3399 12.581 14.0439 13.0279 13.597L11.9542 12.5233L7.72314 10.5035C7.58965 10.4397 7.56064 10.2656 7.66511 10.1611L8.2861 9.54007C8.39638 9.42979 8.55313 9.3892 8.69823 9.42982L10.2305 9.86512L10.9849 9.11058C11.072 9.02352 11.2171 9.02352 11.3042 9.11058L11.8091 9.61552C11.8962 9.70258 11.8962 9.8477 11.8091 9.93476L11.5189 10.225L12.7726 10.579L13.4168 9.93476C13.5039 9.8477 13.6489 9.8477 13.736 9.93476L14.2409 10.4397C14.328 10.5268 14.328 10.6718 14.2409 10.7589L14.0552 10.9446L15.3089 11.2987L16.7308 9.87667C18.0135 8.594 19.2207 7.86272 19.6502 8.29802C20.0855 8.73331 19.3484 9.94054 18.0716 11.2174L16.6496 12.6393L17.0036 13.893L17.1894 13.7073C17.2764 13.6203 17.4215 13.6203 17.5085 13.7073L18.0135 14.2123C18.1005 14.2993 18.1005 14.4444 18.0135 14.5314L17.3693 15.1757L17.7233 16.4293L18.0135 16.1391C18.1005 16.0521 18.2457 16.0521 18.3327 16.1391L18.8377 16.6441L18.8493 16.6499Z" fill="white"/>
</svg>
