<svg xmlns="http://www.w3.org/2000/svg" width="20" height="21" viewBox="0 0 20 21" fill="none">
  <path d="M19.3211 10.2469C19.2937 10.1852 18.632 8.71719 17.1609 7.24609C15.2008 5.28594 12.725 4.25 9.99999 4.25C7.27499 4.25 4.79921 5.28594 2.83905 7.24609C1.36796 8.71719 0.703118 10.1875 0.678899 10.2469C0.643362 10.3268 0.625 10.4133 0.625 10.5008C0.625 10.5883 0.643362 10.6748 0.678899 10.7547C0.706243 10.8164 1.36796 12.2836 2.83905 13.7547C4.79921 15.7141 7.27499 16.75 9.99999 16.75C12.725 16.75 15.2008 15.7141 17.1609 13.7547C18.632 12.2836 19.2937 10.8164 19.3211 10.7547C19.3566 10.6748 19.375 10.5883 19.375 10.5008C19.375 10.4133 19.3566 10.3268 19.3211 10.2469ZM9.99999 15.5C7.5953 15.5 5.49452 14.6258 3.75546 12.9023C3.0419 12.1927 2.43483 11.3836 1.95312 10.5C2.4347 9.61636 3.04179 8.80717 3.75546 8.09766C5.49452 6.37422 7.5953 5.5 9.99999 5.5C12.4047 5.5 14.5055 6.37422 16.2445 8.09766C16.9595 8.807 17.5679 9.61619 18.0508 10.5C17.4875 11.5516 15.0336 15.5 9.99999 15.5ZM9.99999 6.75C9.25831 6.75 8.53329 6.96993 7.9166 7.38199C7.29992 7.79404 6.81927 8.37971 6.53544 9.06494C6.25162 9.75016 6.17735 10.5042 6.32205 11.2316C6.46674 11.959 6.82389 12.6272 7.34834 13.1517C7.87279 13.6761 8.54097 14.0333 9.2684 14.1779C9.99583 14.3226 10.7498 14.2484 11.4351 13.9645C12.1203 13.6807 12.7059 13.2001 13.118 12.5834C13.5301 11.9667 13.75 11.2417 13.75 10.5C13.749 9.50576 13.3535 8.55253 12.6505 7.84949C11.9475 7.14645 10.9942 6.75103 9.99999 6.75ZM9.99999 13C9.50554 13 9.02219 12.8534 8.61107 12.5787C8.19994 12.304 7.87951 11.9135 7.69029 11.4567C7.50107 10.9999 7.45157 10.4972 7.54803 10.0123C7.64449 9.52732 7.88259 9.08186 8.23222 8.73223C8.58186 8.3826 9.02731 8.1445 9.51227 8.04804C9.99722 7.95157 10.4999 8.00108 10.9567 8.1903C11.4135 8.37952 11.804 8.69995 12.0787 9.11107C12.3534 9.5222 12.5 10.0055 12.5 10.5C12.5 11.163 12.2366 11.7989 11.7678 12.2678C11.2989 12.7366 10.663 13 9.99999 13Z" fill="#475467"/>
</svg>
