<svg xmlns="http://www.w3.org/2000/svg" width="20" height="20" viewBox="0 0 20 20" fill="none">
  <path d="M17.5 3V17C17.5 17.2762 17.2762 17.5 17 17.5H3C2.72386 17.5 2.5 17.2762 2.5 17V3C2.5 2.72386 2.72386 2.5 3 2.5H17C17.2762 2.5 17.5 2.72386 17.5 3Z" stroke="black" stroke-width="1.2" stroke-linecap="round" stroke-linejoin="round"/>
  <path d="M2.5 13.334L8.33333 10.834L17.5 15.0007" stroke="black" stroke-width="1.2" stroke-linecap="round" stroke-linejoin="round"/>
  <path d="M13.3334 8.33333C12.4129 8.33333 11.6667 7.58714 11.6667 6.66667C11.6667 5.74619 12.4129 5 13.3334 5C14.2539 5 15.0001 5.74619 15.0001 6.66667C15.0001 7.58714 14.2539 8.33333 13.3334 8.33333Z" stroke="black" stroke-width="1.2" stroke-linecap="round" stroke-linejoin="round"/>
</svg>
