<svg xmlns="http://www.w3.org/2000/svg" width="20" height="20" viewBox="0 0 20 20" fill="none">
  <path d="M5.83325 7.50926L5.84159 7.5" stroke="black" stroke-width="1.2" stroke-linecap="round" stroke-linejoin="round"/>
  <path d="M9.16675 7.50926L9.17508 7.5" stroke="black" stroke-width="1.2" stroke-linecap="round" stroke-linejoin="round"/>
  <path d="M5.83325 10.8413L5.84159 10.832" stroke="black" stroke-width="1.2" stroke-linecap="round" stroke-linejoin="round"/>
  <path d="M9.16675 10.8413L9.17508 10.832" stroke="black" stroke-width="1.2" stroke-linecap="round" stroke-linejoin="round"/>
  <path d="M5.83325 14.1753L5.84159 14.166" stroke="black" stroke-width="1.2" stroke-linecap="round" stroke-linejoin="round"/>
  <path d="M9.16675 14.1753L9.17508 14.166" stroke="black" stroke-width="1.2" stroke-linecap="round" stroke-linejoin="round"/>
  <path d="M12.5 17.5H3C2.72386 17.5 2.5 17.2762 2.5 17V4.66667C2.5 4.39052 2.72386 4.16667 3 4.16667H7.5V3C7.5 2.72386 7.72386 2.5 8 2.5H12C12.2762 2.5 12.5 2.72386 12.5 3V7.5M12.5 17.5H17C17.2762 17.5 17.5 17.2762 17.5 17V8C17.5 7.72386 17.2762 7.5 17 7.5H12.5M12.5 17.5V14.1667M12.5 7.5V10.8333M12.5 14.1667V10.8333M12.5 14.1667H14.1667M12.5 10.8333H14.1667" stroke="black" stroke-width="1.2" stroke-linecap="round" stroke-linejoin="round"/>
</svg>
