<svg xmlns="http://www.w3.org/2000/svg" width="32" height="32" viewBox="0 0 32 32" fill="none">
  <g clip-path="url(#clip0_354_1692)">
    <path d="M11.6437 2.10586V0.518359C11.6562 -0.144141 12.6437 -0.144141 12.65 0.518359V2.10586C12.6437 2.76836 11.6562 2.76836 11.6437 2.10586ZM2.13748 11.6121H0.549976C-0.112524 11.6246 -0.112524 12.6121 0.549976 12.6184H2.13748C2.41873 12.6184 2.64373 12.3934 2.64373 12.1121C2.64373 11.8371 2.41873 11.6121 2.13748 11.6121ZM19.5812 5.39336L20.7 4.27461C21.1625 3.79961 20.4625 3.09961 19.9875 3.56211L18.8687 4.68086C18.4062 5.15586 19.1062 5.85586 19.5812 5.39336ZM4.71248 5.39336C5.18748 5.85586 5.88748 5.15586 5.42498 4.68086L4.30623 3.56211C3.83123 3.09961 3.13123 3.79961 3.59373 4.27461L4.71248 5.39336ZM31.9187 4.30586L27.4875 18.6496C27.4125 18.8996 27.1562 19.0434 26.9062 18.9934L23.8125 18.3809L20.3937 21.6246C20.0062 23.0309 20.2812 24.0934 21.25 24.8996C21.6375 25.2684 22.075 25.6871 22.0437 26.3684C22.0187 26.9434 21.7062 27.2996 21.475 27.5559C20.7625 28.2059 21.5437 28.6621 22.2 29.1059C22.725 29.4496 23.2687 29.8059 23.15 30.3871C23.0187 31.0621 22.2875 31.0871 21.175 31.1309C20.225 31.1684 18.925 31.2121 17.3062 31.5746C16.1562 31.8434 15.0375 32.1684 13.8437 31.8309C13.1937 31.6621 12.1687 31.2934 11.7875 30.6059H11.0125C10.0312 30.6059 9.23123 29.8059 9.23123 28.8246V28.0496H8.81248C7.23123 28.0684 6.43123 26.0621 7.57498 24.9934C6.68748 24.1996 6.94373 22.5621 8.06873 22.1059C8.03123 20.6996 7.42498 19.3684 6.33123 18.3496C0.924976 13.3246 4.26873 4.15586 11.6 3.68086C15.4625 3.43711 18.9812 5.83711 20.1937 9.44961C23.6187 7.67461 27.7937 5.49336 31.2 3.71836C31.5875 3.49961 32.0625 3.89961 31.9187 4.30586ZM9.08123 21.9309H15.2187C15.2937 20.4621 15.8625 19.0871 16.8125 18.0559C16.6812 17.8809 16 16.9809 15.8812 16.8246L8.72498 15.4184C12.1562 13.6371 15.8687 11.6996 19.3 9.91211C16.65 1.98711 5.24998 3.46836 4.66873 11.8121C4.57498 13.9996 5.43123 16.1121 7.02498 17.6059C8.27498 18.7809 8.99998 20.3121 9.08123 21.9309ZM8.03748 23.7121C8.03748 24.1371 8.38748 24.4871 8.81248 24.4871H15.475C16.5 24.4746 16.4875 22.9621 15.475 22.9434H8.81248C8.39997 22.9309 8.03123 23.2996 8.03748 23.7121ZM15.475 27.0434C16.4937 27.0184 16.4937 25.5246 15.475 25.4996H8.81248C7.79373 25.5309 7.79998 27.0184 8.81873 27.0434C8.81248 27.0434 15.475 27.0434 15.475 27.0434ZM13.275 29.5996C13.7 29.5996 14.05 29.2496 14.05 28.8246V28.0496H10.2437V28.8246C10.2437 29.2496 10.5875 29.5996 11.0187 29.5996H13.275ZM19.3937 21.4746L17.4312 18.8809C16.6875 19.7496 16.2562 20.8934 16.2187 22.1059C17.3125 22.5621 17.6187 24.1871 16.7125 24.9996C17.8562 26.0684 17.0562 28.0809 15.475 28.0559H15.0562V28.8309C15.0562 29.7871 14.3 30.5621 13.35 30.6059C14.5312 31.2059 15.8312 30.9309 17.0875 30.5996C19.2312 30.1371 20.3812 30.1871 21.8562 30.0996C20.625 29.3871 19.45 28.2434 20.7187 26.8996C21.1812 26.3746 21.1562 26.1934 20.5562 25.6371C19.4 24.6809 18.9312 23.1434 19.3937 21.4746ZM24.0437 11.6934L23.9187 11.7809L16.8937 16.4934L17.025 16.6684L18.1625 18.1746L19.6687 20.1684L20.2562 17.1809C21.2437 15.5434 22.9937 13.2621 24.0437 11.6934ZM22.6 18.1496C22.4937 18.1309 21.2 17.8746 21.1437 17.8621L20.7437 19.9121L22.6 18.1496ZM30.6 5.16211C28.425 6.29336 24.85 8.15586 22.6312 9.31211C19.0812 11.1621 15.3 13.1246 11.7437 14.9809L16.0625 15.8309L25.7312 9.34961C25.8687 9.26836 26.0437 9.24336 26.1937 9.30586C26.4937 9.40586 26.6187 9.79961 26.4312 10.0559C24.8187 12.3434 23.2125 14.6371 21.6062 16.9246L21.7 16.9434L26.6625 17.9184L30.6 5.16211ZM4.71248 18.8371L3.59373 19.9559C3.27498 20.2559 3.51873 20.8309 3.94998 20.8184C4.08123 20.8184 4.20623 20.7684 4.30623 20.6684L5.42498 19.5496C5.62498 19.3496 5.62498 19.0309 5.42498 18.8371C5.23123 18.6434 4.91248 18.6434 4.71248 18.8371Z" fill="#394B9B"/>
  </g>
  <defs>
    <clipPath id="clip0_354_1692">
      <rect width="32" height="32" fill="white"/>
    </clipPath>
  </defs>
</svg>
